<?xml version="1.0" standalone="no"?>
<!DOCTYPE svg PUBLIC "-//W3C//DTD SVG 20010904//EN"
 "http://www.w3.org/TR/2001/REC-SVG-20010904/DTD/svg10.dtd">
<svg version="1.0" xmlns="http://www.w3.org/2000/svg"
 width="128.000000pt" height="128.000000pt" viewBox="0 0 128.000000 128.000000"
 preserveAspectRatio="xMidYMid meet">
<metadata>
Created by potrace 1.14, written by Peter Selinger 2001-2017
</metadata>
<g transform="translate(0.000000,128.000000) scale(0.100000,-0.100000)"
fill="#000000" stroke="none">
<path d="M224 1266 c-64 -28 -64 -29 -63 -582 0 -370 3 -505 12 -521 27 -49
58 -61 177 -67 22 -1 25 -5 25 -43 0 -51 8 -60 33 -36 100 90 91 89 163 33 35
-28 67 -50 70 -50 3 0 5 22 4 50 l-2 50 186 0 c215 0 249 6 276 52 19 32 20
55 21 528 1 469 0 497 -18 537 -13 29 -28 45 -50 52 -49 17 -794 14 -834 -3z"/>
</g>
</svg>
